<?xml version="1.0" encoding="utf-8"?><!-- Uploaded to: SVG Repo, www.svgrepo.com, Generator: SVG Repo Mixer Tools -->
<svg width="800px" height="800px" viewBox="0 -0.5 25 25" fill="none" xmlns="http://www.w3.org/2000/svg">
<path fill-rule="evenodd" clip-rule="evenodd" d="M11.1149 10.4439C11.1149 9.58458 11.7941 8.88794 12.632 8.88794C13.4698 8.88794 14.1491 9.58458 14.1491 10.4439C14.1491 11.3033 13.4698 11.9999 12.632 11.9999C12.2296 11.9999 11.8437 11.836 11.5592 11.5442C11.2747 11.2524 11.1149 10.8566 11.1149 10.4439V10.4439Z" stroke="#000000" stroke-width="1.5" stroke-linecap="round" stroke-linejoin="round"/>
<path fill-rule="evenodd" clip-rule="evenodd" d="M16.296 17.906L13.4071 14.6C13.208 14.3774 12.927 14.2506 12.6325 14.2506C12.3379 14.2506 12.0569 14.3774 11.8578 14.6L8.96794 17.906C8.72273 18.2013 8.67303 18.6181 8.84163 18.9653C9.01024 19.3125 9.3646 19.5229 9.74209 19.5H15.5219C15.8994 19.5229 16.2537 19.3125 16.4223 18.9653C16.591 18.6181 16.5412 18.2013 16.296 17.906V17.906Z" stroke="#000000" stroke-width="1.5" stroke-linecap="round" stroke-linejoin="round"/>
<path d="M9.08781 14.105C9.39104 14.3872 9.86561 14.3702 10.1478 14.0669C10.43 13.7637 10.4129 13.2891 10.1097 13.007L9.08781 14.105ZM10.1097 7.10504C10.4129 6.82285 10.43 6.34829 10.1478 6.04506C9.86561 5.74184 9.39104 5.72478 9.08781 6.00696L10.1097 7.10504ZM15.1543 13.007C14.851 13.2891 14.834 13.7637 15.1162 14.0669C15.3983 14.3702 15.8729 14.3872 16.1761 14.105L15.1543 13.007ZM16.1761 6.00696C15.8729 5.72478 15.3983 5.74184 15.1162 6.04506C14.834 6.34829 14.851 6.82285 15.1543 7.10504L16.1761 6.00696ZM17.3121 14.7017C17.0855 15.0484 17.1828 15.5132 17.5295 15.7398C17.8763 15.9664 18.3411 15.8691 18.5677 15.5223L17.3121 14.7017ZM18.5677 4.58967C18.3411 4.24294 17.8763 4.14558 17.5295 4.37221C17.1828 4.59883 17.0855 5.06361 17.3121 5.41033L18.5677 4.58967ZM6.69626 15.5213C6.92285 15.868 7.38763 15.9654 7.73437 15.7388C8.08111 15.5122 8.1785 15.0474 7.9519 14.7007L6.69626 15.5213ZM7.9519 5.41029C8.1785 5.06356 8.08111 4.59878 7.73437 4.37218C7.38763 4.14558 6.92285 4.24297 6.69626 4.58971L7.9519 5.41029ZM10.1097 13.007C9.30194 12.2553 8.83721 11.1841 8.83721 10.056H7.33721C7.33721 11.5941 7.97038 13.0651 9.08781 14.105L10.1097 13.007ZM8.83721 10.056C8.83721 8.92789 9.30194 7.85674 10.1097 7.10504L9.08781 6.00696C7.97038 7.04685 7.33721 8.5179 7.33721 10.056H8.83721ZM16.1761 14.105C17.2936 13.0651 17.9267 11.5941 17.9267 10.056H16.4267C16.4267 11.1841 15.962 12.2553 15.1543 13.007L16.1761 14.105ZM17.9267 10.056C17.9267 8.5179 17.2936 7.04685 16.1761 6.00696L15.1543 7.10504C15.962 7.85674 16.4267 8.92789 16.4267 10.056H17.9267ZM18.5677 15.5223C20.7299 12.2142 20.7299 7.89777 18.5677 4.58967L17.3121 5.41033C19.1484 8.21985 19.1484 11.8922 17.3121 14.7017L18.5677 15.5223ZM7.9519 14.7007C6.11597 11.8914 6.11597 8.2196 7.9519 5.41029L6.69626 4.58971C4.53452 7.89756 4.53452 12.2134 6.69626 15.5213L7.9519 14.7007Z" fill="#000000"/>
</svg>